{
  "accessors": [
    {
      "bufferView": 2,
      "componentType": 5126,
      "count": 4530,
      "max": [
        26.59280014038086,
        9.025973320007324,
        196.09620666503906
      ],
      "min": [
        1.0664290189743042,
        -9.028024673461914,
        181.17869567871094
      ],
      "type": "VEC3"
    },
    {
      "bufferView": 2,
      "byteOffset": 54360,
      "componentType": 5126,
      "count": 4530,
      "max": [
        1.0,
        1.0,
        1.0
      ],
      "min": [
        -1.0,
        -1.0,
        -1.0
      ],
      "type": "VEC3"
    },
    {
      "bufferView": 1,
      "componentType": 5126,
      "count": 4530,
      "max": [
        1.0,
        1.0
      ],
      "min": [
        0.0,
        0.0
      ],
      "type": "VEC2"
    },
    {
      "bufferView": 0,
      "componentType": 5125,
      "count": 26940,
      "type": "SCALAR"
    },
    {
      "bufferView": 2,
      "byteOffset": 108720,
      "componentType": 5126,
      "count": 9926,
      "max": [
        22.699769973754883,
        4.726381778717041,
        208.56570434570313
      ],
      "min": [
        2.8132500648498535,
        -4.785333156585693,
        177.15440368652344
      ],
      "type": "VEC3"
    },
    {
      "bufferView": 2,
      "byteOffset": 227832,
      "componentType": 5126,
      "count": 9926,
      "max": [
        0.9999943971633911,
        0.9999966025352478,
        1.0
      ],
      "min": [
        -0.9999940991401672,
        -0.9999952912330627,
        -1.0
      ],
      "type": "VEC3"
    },
    {
      "bufferView": 1,
      "byteOffset": 36240,
      "componentType": 5126,
      "count": 9926,
      "max": [
        1.0,
        1.0
      ],
      "min": [
        0.0,
        0.0
      ],
      "type": "VEC2"
    },
    {
      "bufferView": 0,
      "byteOffset": 107760,
      "componentType": 5125,
      "count": 15336,
      "type": "SCALAR"
    },
    {
      "bufferView": 2,
      "byteOffset": 346944,
      "componentType": 5126,
      "count": 300,
      "max": [
        1.6572599411010742,
        1.6589100360870361,
        200.8177947998047
      ],
      "min": [
        -1.6351499557495117,
        -1.6533000469207764,
        200.04949951171875
      ],
      "type": "VEC3"
    },
    {
      "bufferView": 2,
      "byteOffset": 350544,
      "componentType": 5126,
      "count": 300,
      "max": [
        0.9999579191207886,
        0.9973443150520325,
        1.0
      ],
      "min": [
        -1.0,
        -0.9976654052734375,
        -1.0
      ],
      "type": "VEC3"
    },
    {
      "bufferView": 1,
      "byteOffset": 115648,
      "componentType": 5126,
      "count": 300,
      "max": [
        1.0,
        1.0
      ],
      "min": [
        0.0,
        0.0
      ],
      "type": "VEC2"
    },
    {
      "bufferView": 0,
      "byteOffset": 169104,
      "componentType": 5125,
      "count": 588,
      "type": "SCALAR"
    },
    {
      "bufferView": 2,
      "byteOffset": 354144,
      "componentType": 5126,
      "count": 10368,
      "max": [
        4.75570011138916,
        4.733850002288818,
        200.247802734375
      ],
      "min": [
        -4.75570011138916,
        -4.733850002288818,
        0.01364619005471468
      ],
      "type": "VEC3"
    },
    {
      "bufferView": 2,
      "byteOffset": 478560,
      "componentType": 5126,
      "count": 10368,
      "max": [
        0.9988408088684082,
        0.99897700548172,
        1.0
      ],
      "min": [
        -0.9988408088684082,
        -0.99897700548172,
        -1.0
      ],
      "type": "VEC3"
    },
    {
      "bufferView": 1,
      "byteOffset": 118048,
      "componentType": 5126,
      "count": 10368,
      "max": [
        0.9908999800682068,
        0.375
      ],
      "min": [
        0.02449999935925007,
        0.375
      ],
      "type": "VEC2"
    },
    {
      "bufferView": 0,
      "byteOffset": 171456,
      "componentType": 5125,
      "count": 15732,
      "type": "SCALAR"
    }
  ],
  "asset": {
    "extras": {
      "author": "michaelazamar268 (https://sketchfab.com/michaelazamar268)",
      "license": "CC-BY-4.0 (http://creativecommons.org/licenses/by/4.0/)",
      "source": "https://sketchfab.com/3d-models/pendant-street-light-584b4d12237d4cf1863bf0a5a8fe4748",
      "title": "Pendant Street Light"
    },
    "generator": "Sketchfab-13.74.0",
    "version": "2.0"
  },
  "bufferViews": [
    {
      "buffer": 0,
      "byteLength": 234384,
      "name": "floatBufferViews",
      "target": 34963
    },
    {
      "buffer": 0,
      "byteLength": 200992,
      "byteOffset": 234384,
      "byteStride": 8,
      "name": "floatBufferViews",
      "target": 34962
    },
    {
      "buffer": 0,
      "byteLength": 602976,
      "byteOffset": 435376,
      "byteStride": 12,
      "name": "floatBufferViews",
      "target": 34962
    }
  ],
  "buffers": [
    {
      "byteLength": 1038352,
      "uri": "scene.bin"
    }
  ],
  "materials": [
    {
      "doubleSided": true,
      "name": "StandardClone",
      "pbrMetallicRoughness": {
        "baseColorFactor": [
          0.003597933285776896,
          0.003563168987843383,
          0.003563168987843383,
          1.0
        ],
        "metallicFactor": 0.05115507709598822,
        "roughnessFactor": 0.1969577514809684
      }
    }
  ],
  "meshes": [
    {
      "name": "Object_0",
      "primitives": [
        {
          "attributes": {
            "NORMAL": 1,
            "POSITION": 0,
            "TEXCOORD_0": 2
          },
          "indices": 3,
          "material": 0,
          "mode": 4
        }
      ]
    },
    {
      "name": "Object_1",
      "primitives": [
        {
          "attributes": {
            "NORMAL": 5,
            "POSITION": 4,
            "TEXCOORD_0": 6
          },
          "indices": 7,
          "material": 0,
          "mode": 4
        }
      ]
    },
    {
      "name": "Object_2",
      "primitives": [
        {
          "attributes": {
            "NORMAL": 9,
            "POSITION": 8,
            "TEXCOORD_0": 10
          },
          "indices": 11,
          "material": 0,
          "mode": 4
        }
      ]
    },
    {
      "name": "Object_3",
      "primitives": [
        {
          "attributes": {
            "NORMAL": 13,
            "POSITION": 12,
            "TEXCOORD_0": 14
          },
          "indices": 15,
          "material": 0,
          "mode": 4
        }
      ]
    }
  ],
  "nodes": [
    {
      "children": [
        1
      ],
      "matrix": [
        1.0,
        0.0,
        0.0,
        0.0,
        0.0,
        2.220446049250313e-16,
        -1.0,
        0.0,
        0.0,
        1.0,
        2.220446049250313e-16,
        0.0,
        0.0,
        0.0,
        0.0,
        1.0
      ],
      "name": "Sketchfab_model"
    },
    {
      "children": [
        2,
        3,
        4,
        5
      ],
      "name": "Pendant Street Lights.obj.cleaner.materialmerger.gles"
    },
    {
      "mesh": 0,
      "name": "Object_2"
    },
    {
      "mesh": 1,
      "name": "Object_3"
    },
    {
      "mesh": 2,
      "name": "Object_4"
    },
    {
      "mesh": 3,
      "name": "Object_5"
    }
  ],
  "scene": 0,
  "scenes": [
    {
      "name": "Sketchfab_Scene",
      "nodes": [
        0
      ]
    }
  ]
}
